<?xml version="1.0" encoding="UTF-8" standalone="no"?>
<!-- Created with Inkscape (http://www.inkscape.org/) -->

<svg
   xmlns:dc="http://purl.org/dc/elements/1.1/"
   xmlns:cc="http://creativecommons.org/ns#"
   xmlns:rdf="http://www.w3.org/1999/02/22-rdf-syntax-ns#"
   xmlns:svg="http://www.w3.org/2000/svg"
   xmlns="http://www.w3.org/2000/svg"
   xmlns:xlink="http://www.w3.org/1999/xlink"
   xmlns:sodipodi="http://sodipodi.sourceforge.net/DTD/sodipodi-0.dtd"
   xmlns:inkscape="http://www.inkscape.org/namespaces/inkscape"
   width="66.902176mm"
   height="51.461449mm"
   viewBox="0 0 66.902176 51.461449"
   version="1.1"
   id="svg8"
   inkscape:version="0.92.2 (5c3e80d, 2017-08-06)"
   sodipodi:docname="slime_pal_outlines.svg">
  <defs
     id="defs2">
    <path
       d="M 395.89999,745.09998 H 690.5 V 1024.9 H 395.89999 Z"
       id="a"
       inkscape:connector-curvature="0" />
  </defs>
  <sodipodi:namedview
     id="base"
     pagecolor="#ffffff"
     bordercolor="#666666"
     borderopacity="1.0"
     inkscape:pageopacity="0.0"
     inkscape:pageshadow="2"
     inkscape:zoom="1.979899"
     inkscape:cx="187.7293"
     inkscape:cy="127.54961"
     inkscape:document-units="mm"
     inkscape:current-layer="g3775"
     showgrid="false"
     inkscape:window-width="1920"
     inkscape:window-height="1017"
     inkscape:window-x="-8"
     inkscape:window-y="-8"
     inkscape:window-maximized="1" />
  <metadata
     id="metadata5">
    <rdf:RDF>
      <cc:Work
         rdf:about="">
        <dc:format>image/svg+xml</dc:format>
        <dc:type
           rdf:resource="http://purl.org/dc/dcmitype/StillImage" />
        <dc:title></dc:title>
      </cc:Work>
    </rdf:RDF>
  </metadata>
  <g
     inkscape:label="Layer 1"
     inkscape:groupmode="layer"
     id="layer1"
     transform="translate(2.2988333e-6,-245.53855)">
    <g
       id="g3775"
       transform="matrix(0.26458333,0,0,0.26458333,-104.74854,25.828553)">
      <defs
         id="defs3700">
        <path
           d="M 395.89999,745.09998 H 690.5 V 1024.9 H 395.89999 Z"
           id="path3786"
           inkscape:connector-curvature="0" />
      </defs>
      <clipPath
         id="b">
        <use
           id="use3702"
           overflow="visible"
           height="100%"
           width="100%"
           xlink:href="#a"
           style="overflow:visible"
           x="0"
           y="0" />
      </clipPath>
      <path
         style="fill:#000000;fill-opacity:1;stroke:none;stroke-width:0.63102269px;stroke-linecap:butt;stroke-linejoin:miter;stroke-opacity:1"
         d="m 503.23047,991.67728 c 0,0 0.54102,3.48238 1.00492,5.47234 0.38543,1.65334 4.20038,7.61178 6.95008,2.38141 0,0 1.92292,-4.02125 0.007,-8.05893 -2.35633,-14.06699 -4.86146,-7.72639 -7.60316,-5.06801 z"
         id="path866-9-6"
         inkscape:connector-curvature="0"
         sodipodi:nodetypes="cscccc" />
      <path
         id="path3705"
         clip-path="url(#b)"
         d="m 339.3,1028.6 c 1.5,-3.2 14.4,-31.3 27.4,-58.8 -6,-9.3 -2,-17 1.5,-23.7 1.9,-3.7 3.8,-7.1 3.6,-10.4 -0.8,-22 8.1,-38.3 22.8,-41.6 2.8,-0.6 5.2,-0.9 7.5,-0.9 3,0 5.6,0.5 8.1,1.6 1.4,-1.3 2.8,-2.6 4.2,-3.8 -2.8,-2.6 -4.3,-5.5 -4.5,-8.8 -0.3,-4.5 2.2,-9.5 6.8,-13.7 5.3,-4.8 16.5,-12.9 31.7,-12.9 0.9,0 1.7,0 2.6,0.1 -0.4,-0.9 -1,-2 -2.1,-2.9 -2.1,-1.6 -1.9,-3.2 -1.6,-4 0.7,-2.1 3.6,-3.2 8.1,-3.2 3.9,0 9.7,1.2 14,4.4 0.3,-0.7 0.7,-1.3 1.3,-1.7 0.5,-0.3 1.3,-0.5 2.2,-0.5 3.4,0 10.6,2.7 15.5,9.9 3.6,5.3 3.6,10.8 0.1,16 18.3,4.7 30.1,15.6 39.5,24.4 2.5,2.4 5,4.6 7.3,6.5 10.7,8.9 21.4,13.2 32.7,13.2 0.9,0 1.8,0 2.7,-0.1 2,-13.5 -4.1,-25.5 -10,-35.7 -6.2,-10.7 -6.4,-12.1 -4.9,-13.9 l 0.1,-0.1 c 0.6,-0.7 1.3,-1 2.1,-1.1 h 0.3 c 1.7,0 4.5,1 13,8.7 9.9,9 16.9,22.2 19.2,36.5 8.9,-4.9 15.2,-12.5 17.1,-20.3 2,-8.6 0.5,-16.8 -4.2,-22.7 l -13.1,6.1 -7,-16.9 -15.6,3.2 7.2,-19.5 h 0.1 l -0.2,-0.5 4.6,-11.1 65.7,11.9 c 3.1,0.6 3.9,2.7 3.6,4.5 l -0.2,1 -0.4,-0.1 c -0.3,0.4 -0.6,0.7 -1,0.9 -0.7,0.3 -7.5,3.6 -21,9.9 2.1,2.9 2.2,6.1 0.4,9.4 -1.1,1.9 -2.5,6.2 0.4,13.3 3.7,8.9 3.5,29.2 -8.3,46.2 -8.1,11.7 -18.3,23 -37.6,26.6 -3,4.6 -6.5,9 -10.2,12.6 -7.8,7.6 -24,15.3 -42.3,15.3 -5.3,0 -10.7,-0.6 -15.9,-1.9 -7.6,12.9 -10.5,26.2 -10.6,32.1 -0.2,11 0.9,16.1 0.9,16.2 l 0.4,1.8 -164.9,0.8 z"
         class="st53"
         inkscape:connector-curvature="0" />
      <path
         id="path3707"
         clip-path="url(#b)"
         d="m 339.8,1028.8 c 0.1,-0.3 13.9,-30.1 27.5,-59.1 -6.1,-9.2 -2.1,-16.8 1.4,-23.5 2,-3.7 3.8,-7.3 3.7,-10.6 -0.8,-21.7 8,-37.9 22.4,-41 2.7,-0.6 5.1,-0.9 7.4,-0.9 3,0 5.7,0.5 8.2,1.7 1.6,-1.6 3.2,-3 4.9,-4.4 -3,-2.6 -4.6,-5.5 -4.8,-8.8 -0.3,-4.4 2.1,-9.2 6.6,-13.3 5.3,-4.8 16.4,-12.8 31.4,-12.8 1.1,0 2.2,0 3.3,0.1 -0.3,-1.1 -1,-2.7 -2.5,-3.8 -1.8,-1.4 -1.7,-2.8 -1.5,-3.4 0.6,-1.8 3.4,-2.9 7.6,-2.9 4.4,0 10.3,1.5 14.3,4.8 0.1,-0.9 0.6,-1.7 1.3,-2.1 0.4,-0.3 1.1,-0.4 1.9,-0.4 3.3,0 10.3,2.6 15.1,9.7 3.6,5.3 3.5,10.9 -0.3,16.1 18.6,4.6 30.5,15.6 40,24.4 2.6,2.4 5,4.6 7.3,6.5 10.8,8.9 21.6,13.3 33.1,13.3 1,0 2.1,0 3.1,-0.1 2.2,-13.9 -4,-26.1 -10,-36.4 -6.3,-10.9 -6.2,-11.8 -5,-13.3 l 0.1,-0.1 c 0.2,-0.2 0.7,-0.9 1.8,-0.9 h 0.2 c 1.5,0 4.2,1 12.7,8.6 10,9.1 17,22.5 19.2,36.9 9.3,-5 16,-12.8 17.9,-20.9 2.1,-8.9 0.4,-17.4 -4.5,-23.4 l -13,6.1 -6.9,-16.8 -15.1,3.1 6.8,-18.4 h 0.6 l -0.5,-1 4.4,-10.6 65.3,11.8 c 3.5,0.7 3.3,3.2 3.2,3.9 l -0.1,0.5 h -0.2 c -0.2,0.4 -0.6,0.8 -1,1 -0.7,0.3 -7.9,3.7 -21.6,10.2 0.1,0.1 0.2,0.2 0.3,0.4 2,2.7 2.2,5.8 0.4,8.9 -1.1,2 -2.6,6.4 0.4,13.7 3.6,8.8 3.4,28.8 -8.2,45.7 -8.1,11.7 -18.2,22.9 -37.5,26.4 -3,4.7 -6.5,9.1 -10.3,12.7 -7.8,7.5 -23.7,15.1 -42,15.1 -5.4,0 -10.9,-0.7 -16.1,-2 -7.7,13.1 -10.7,26.7 -10.9,32.7 -0.2,11.1 0.9,16.2 0.9,16.3 l 0.3,1.2 -163.5,0.8 z"
         class="st53"
         inkscape:connector-curvature="0" />
      <path
         id="path3709"
         stroke-miterlimit="10"
         clip-path="url(#b)"
         d="m 577.5,843.7 -1,-2.1 3.9,-9.4 64.5,11.6 c 2.4,0.5 2.5,2 2.4,2.8"
         inkscape:connector-curvature="0"
         style="fill:#ffffff;stroke:#000000;stroke-linecap:round;stroke-linejoin:round;stroke-miterlimit:10" />
      <path
         id="path3711"
         stroke-miterlimit="10"
         clip-path="url(#b)"
         d="m 584.2,856.7 6.9,16.6 c 0,0 53.7,-25.1 55.5,-26 0.9,-0.5 1.5,-2.2 -1,-2.3 -2.5,-0.1 -69.6,-1.4 -69.6,-1.4 l -5.9,16 z"
         inkscape:connector-curvature="0"
         style="fill:#ffffff;stroke:#000000;stroke-width:1.70000005;stroke-linecap:round;stroke-linejoin:round;stroke-miterlimit:10" />
      <path
         id="path3713"
         clip-path="url(#b)"
         d="m 585.1,857 58.9,-11.2 1.4,-0.5 h 0.4 c 0.8,0 0.7,0.3 0.8,0.6 0.1,0.3 -0.1,0.6 -0.4,0.8 L 587,861.5 Z"
         inkscape:connector-curvature="0"
         style="fill:#d1d3d4" />
      <path
         id="path3715"
         d="M 584.20001,856.70001 646,845.20001"
         stroke-miterlimit="10"
         clip-path="url(#b)"
         class="st57"
         inkscape:connector-curvature="0"
         style="fill:none;stroke:#000000;stroke-linecap:round;stroke-linejoin:round;stroke-miterlimit:10" />
      <path
         style="fill:#000000;fill-opacity:1;stroke:none;stroke-width:0.51954502px;stroke-linecap:butt;stroke-linejoin:miter;stroke-opacity:1"
         d="m 615.25174,930.31153 c 0,0 -0.23388,3.19789 -0.25495,5.04792 -0.0175,1.53709 1.77349,7.74413 4.71629,3.46247 0,0 2.03416,-3.63234 1.3677,-7.52881 0.16708,-2.63588 -0.22462,-5.45214 -0.33541,-6.75611 -0.43322,-5.09885 -2.31284,-0.47181 -4.28264,1.10453 z"
         id="path866-9-6-7"
         inkscape:connector-curvature="0"
         sodipodi:nodetypes="csccscc" />
      <path
         id="path3717"
         stroke-miterlimit="10"
         clip-path="url(#b)"
         d="m 388.5,927.9 c 20,-40 49.9,-56.3 83.4,-54.9 33.6,1.4 48.8,21.7 62.4,32.9 13.6,11.2 27.5,15.6 43.4,12.5 15.9,-3.1 28.5,-14.6 31.2,-26.1 2.7,-11.5 -1,-20.7 -6.1,-25.8 -5.1,-5.1 -1.4,-8.1 4.1,-6.8 5.4,1.4 8.1,3.4 8.1,3.4 0,0 7.8,-6.4 9.8,-3.7 2,2.7 1.7,5.4 0.3,7.8 -1.4,2.4 -2.7,7.1 0.3,14.6 3.1,7.5 4.1,27.1 -8.1,44.8 -12.2,17.6 -26.5,30.1 -62.1,26.5 -38.5,-3.9 -54.6,44.2 -54.9,59 -0.2,11.5 0.9,16.5 0.9,16.5 l -160.7,0.8 c 0.2,-0.1 33.4,-72.4 48,-101.5 z"
         class="st58"
         inkscape:connector-curvature="0"
         style="fill:#ade5fa;fill-opacity:1;stroke:#000000;stroke-linecap:round;stroke-linejoin:round;stroke-miterlimit:10" />
      <path
         style="fill:#53c1ea;fill-opacity:1;stroke:#000000;stroke-width:2.28802466;stroke-linecap:butt;stroke-linejoin:miter;stroke-miterlimit:4;stroke-dasharray:none;stroke-opacity:1"
         d="m 593.54594,947.83987 c 0,0 0.93359,2.84078 0.97835,5.75341 0.0469,3.04383 -0.76996,6.17481 0.45576,6.63712 2.2822,1.84898 9.07041,-0.87494 6.23923,-6.97812 -1.43411,-7.99155 -2.63408,-9.70666 -2.63408,-9.70666 l -5.03926,0.26845 z"
         id="path866"
         inkscape:connector-curvature="0"
         sodipodi:nodetypes="csccccc" />
      <path
         style="fill:#53c1ea;fill-opacity:1;stroke:none;stroke-width:0.51954502px;stroke-linecap:butt;stroke-linejoin:miter;stroke-opacity:1"
         d="m 614.18031,929.68653 c 0,0 1.30253,-0.26728 1.99533,0.80456 0.57601,0.89115 0.56515,3.05255 0.55558,3.89243 -0.0175,1.53708 0.35881,6.20014 2.40669,2.89708 0,0 1.10971,-3.50845 0.42805,-6.43729 0.0413,-0.89946 -0.49504,-6.48438 -0.84261,-7.17815 -0.90628,-1.809 -0.35144,0.44882 -2.26033,1.97642 z"
         id="path866-9-9"
         inkscape:connector-curvature="0"
         sodipodi:nodetypes="cssccscc" />
      <path
         id="path3719"
         clip-path="url(#b)"
         d="m 399.4,989.3 c -6.1,0 -9.9,-4.3 -10,-4.3 l -0.2,-0.2 -0.3,0.1 c -3.1,1 -6.1,1.5 -9,1.5 -6.1,0 -11.4,-2.2 -15.6,-6.5 1.4,-3 2.9,-6.1 4.3,-9.1 0.1,0.1 0.1,0.2 0.2,0.3 6.1,8 12.7,9.7 17,9.7 3.2,0 5.6,-0.9 6.6,-1.3 0.7,1.3 3,4.7 7.5,4.7 1.2,0 2.5,-0.3 3.9,-0.8 6.7,-2.5 15.7,-13.1 18.3,-22.1 3.2,5.7 -2.8,18.3 -13.8,25.3 -3,1.7 -6,2.7 -8.9,2.7 z m 24.5,-78.1 c -5.7,-11.1 -10.8,-14.2 -12.4,-14.9 15.7,-15.3 34.7,-23 56.6,-23 1.3,0 2.5,0 3.8,0.1 2.1,0.1 4.2,0.3 6.4,0.5 1.5,2.7 -0.4,5.6 -0.8,6.3 -3,0.8 -11.2,6.5 -18.5,11.6 -1.9,1.3 -3.7,2.6 -5.3,3.7 -5.3,3.7 -13.6,4.2 -18,4.2 -1.8,0 -2.9,-0.1 -2.9,-0.1 h -0.3 z m 95.3,49 c 4.2,-7.1 12.6,-15.2 28.3,-15.2 3.5,0 7.2,0.4 11,1.2 3.4,0.7 7,1.1 10.6,1.1 15.9,0 29.8,-7.9 34.8,-12.5 6.5,-6 10.5,-9.8 12,-12.4 1.4,-2.4 3.2,-2.8 4.7,-2 0.1,0.1 -0.7,1.1 -0.6,1.1 -0.9,1.7 -1.9,3.3 -3,4.8 -11.5,16.6 -23.9,26.9 -50,26.9 -3.6,0 -7.5,-0.2 -11.6,-0.6 -1.5,-0.2 -3,-0.2 -4.4,-0.2 -9.4,0 -18.1,3.2 -25.9,9.4 z"
         class="st59"
         inkscape:connector-curvature="0"
         style="fill:#53c1ea;fill-opacity:1" />
      <path
         style="fill:#ade5fa;fill-opacity:1;stroke:none;stroke-width:0.63102269px;stroke-linecap:butt;stroke-linejoin:miter;stroke-opacity:1"
         d="m 503.23047,991.67728 c 0,0 2.573,2.06054 3.0369,4.0505 0.38543,1.65334 1.87392,6.31782 3.70144,2.33088 0,0 0.77118,-2.7974 -0.90786,-5.79336 -0.80826,-4.26761 -2.72982,-8.51959 -5.47152,-5.86121 z"
         id="path866-9"
         inkscape:connector-curvature="0"
         sodipodi:nodetypes="cscccc" />
      <path
         id="path3721"
         stroke-miterlimit="10"
         clip-path="url(#b)"
         d="m 427.4,920.5 c -9.1,-24.2 -19,-27.9 -32.4,-25 -13.4,3 -22.4,18 -21.6,40 0.4,10.2 -15.5,20.5 -4.3,35 11.2,14.5 23.5,8 23.5,8 0,0 3,7.1 11,4.1 8,-3 16.7,-13.5 18.5,-21.6"
         class="st58"
         inkscape:connector-curvature="0"
         style="fill:#ade5fa;fill-opacity:1;stroke:#000000;stroke-linecap:round;stroke-linejoin:round;stroke-miterlimit:10" />
      <path
         id="path3723"
         clip-path="url(#b)"
         d="m 417.2,934.2 c -7.3,0.5 -8.6,-4.8 -7.3,-7 1.2,-2.1 4.6,-3.2 4.6,-3.2 0,0 -5.3,-0.2 -6.3,-4 -1,-3.7 4,-5.3 4,-5.3 0,0 -2.9,-8.6 -13.3,-6.1 -10.4,2.5 -14.4,11.7 -14.2,19 0.6,15.3 -10.2,22.8 0,29.7 10.1,6.9 23.7,-2.8 28.5,-11.3 4.8,-8.5 4,-11.8 4,-11.8 z"
         class="st59"
         inkscape:connector-curvature="0"
         style="fill:#53c1ea;fill-opacity:1" />
      <path
         id="path3725"
         stroke-miterlimit="10"
         clip-path="url(#b)"
         d="m 392.6,978.6 c 6.3,-3.9 9.1,-7.5 9.1,-7.5 m 15.5,-36.9 c -7.3,0.5 -8.6,-4.8 -7.3,-7 1.2,-2.1 4.6,-3.2 4.6,-3.2 0,0 -5.3,-0.2 -6.3,-4 -1,-3.7 4,-5.3 4,-5.3 0,0 -2.9,-8.6 -13.3,-6.1 -10.4,2.5 -14.6,11.7 -14.2,19"
         class="st57"
         inkscape:connector-curvature="0"
         style="fill:none;stroke:#000000;stroke-linecap:round;stroke-linejoin:round;stroke-miterlimit:10" />
      <path
         id="path3727"
         clip-path="url(#b)"
         d="m 417.5,891.4 c -9.8,-6.9 -6.2,-16 0.3,-21.8 6.5,-5.8 19,-14 35.2,-12.2 0,0 -0.2,-3.5 -3.1,-5.8 -2.9,-2.3 -0.5,-4.5 5.5,-4.5 6,0 12.9,2.6 15.8,6.9 0,0 -1.4,-3.2 0.4,-4.4 1.05218,-0.70145 4.35952,-0.24115 8.00459,1.86026 2.59067,1.49355 5.35195,3.81609 7.59541,7.13974 5.4,8 1.1,14.9 -5.2,19.9 -6.3,5 -36.2,11.6 -48.8,10.9"
         inkscape:connector-curvature="0"
         style="fill:#ade5fa;fill-opacity:1"
         sodipodi:nodetypes="cscsscssssc" />
      <g
         id="g3731"
         clip-path="url(#b)"
         class="st53">
        <path
           id="path3729"
           d="m 459.5,878.7 c -11.1,0.6 -22.1,3.3 -32.9,6.1 -4.1,1.1 -8.2,2.2 -12.4,2 -0.4,0 -0.8,-0.1 -1.3,-0.1 1,1.6 2.5,3.2 4.6,4.7 l 15.6,-2.1 c 11.3,0.7 37,-4.7 46.4,-9.4 -6.5,-1.1 -13.3,-1.5 -20,-1.2 z"
           class="st36"
           inkscape:connector-curvature="0"
           style="fill:#53c1ea;fill-opacity:1" />
      </g>
      <path
         id="path3733"
         clip-path="url(#b)"
         d="m 417.5,890.8 c -3.5,-2.5 -5.3,-5.5 -5.5,-8.8 -0.2,-3.2 1.2,-6.7 4,-9.9 -0.4,1.6 -0.2,3.2 0.5,4.7 1.2,2.5 3.6,4 6.3,4 2.1,0 4.3,-0.9 6.3,-2.6 7.2,-6 19.4,-10.4 29.1,-10.4 1.9,0 3.7,0.2 5.3,0.5 7.7,1.6 12.3,3.7 13.8,6.7 0.8,1.6 0.8,3.3 0,5.4 -10.1,4.3 -31.2,8.6 -42.1,8.6 -0.7,0 -1.4,0 -2.1,-0.1 -1.4,-0.1 -2.8,-0.1 -4,-0.1 -7.5,-0.1 -10.6,1.4 -11.6,2 z"
         class="st59"
         inkscape:connector-curvature="0"
         style="fill:#53c1ea;fill-opacity:1" />
      <path
         id="path3735"
         stroke-miterlimit="10"
         clip-path="url(#b)"
         d="m 471.2,854 c 2.2,3.4 1.1,6.7 1.1,6.7"
         class="st57"
         inkscape:connector-curvature="0"
         style="fill:none;stroke:#000000;stroke-linecap:round;stroke-linejoin:round;stroke-miterlimit:10" />
      <path
         id="path3737"
         stroke-miterlimit="10"
         clip-path="url(#b)"
         d="m 489.6,967.9 c 34.6,23.5 68.7,8.7 80.2,-2.4 11.4,-11.1 20.8,-28.5 20,-45.9 -0.8,-17.4 -8.5,-32.9 -19.5,-42.8 -10.7,-9.6 -12.4,-8.7 -13.2,-7.7 -0.8,1 -1.4,1.1 5,12.2 6.4,11.1 13.4,24.6 9.5,40.2 -3.9,15.6 -15.6,29.9 -29.6,34 -14,4 -21.6,-1.4 -26.1,-3.2 0,0 1,4 -3.4,4.3 -4.3,0.3 -11.1,-2.9 -11.1,-2.9 0,0 2.7,3 0.1,5 -2.6,2 -5.9,-0.9 -5.9,-0.9 0,0 2.5,2.2 1.5,3.3 -1,1.1 -2.3,0.8 -4.2,-0.6 0,0 3.2,3.6 1,5.5 -2.2,1.9 -4.3,1.9 -4.3,1.9 z"
         inkscape:connector-curvature="0"
         style="fill:#b3becd;stroke:#000000;stroke-width:1.60000002;stroke-linecap:round;stroke-linejoin:round;stroke-miterlimit:10" />
      <path
         id="path3739"
         clip-path="url(#b)"
         d="m 528.6,979.9 c -13.1,0 -25.8,-3.9 -37.6,-11.7 0.9,-0.2 2.1,-0.7 3.3,-1.8 1.4,-1.3 1,-3 0.3,-4.3 0.4,0.1 0.8,0.2 1.1,0.2 0.7,0 1.3,-0.3 1.8,-0.8 0.3,-0.3 0.4,-0.6 0.4,-1 0,-0.3 -0.1,-0.6 -0.2,-0.9 0.6,0.2 1.2,0.4 1.9,0.4 0.9,0 1.7,-0.3 2.4,-0.8 0.3,-0.2 0.5,-0.5 0.7,-0.8 12.6,6.2 22.6,9.1 31.5,9.1 7.8,0 14.7,-2.3 21.1,-6.9 16.8,-12.3 21.3,-21.3 24.6,-27.9 l 0.3,-0.6 c 2.3,-4.5 4.2,-6.5 6.4,-6.5 0.9,0 1.7,0.3 2.7,0.9 -1.4,13.6 -8.7,28 -19.6,38.6 -7.9,7.4 -23.4,14.8 -41.1,14.8 z"
         inkscape:connector-curvature="0"
         style="fill:#92a1b5" />
      <path
         id="path3741"
         stroke-miterlimit="10"
         clip-path="url(#b)"
         d="m 489.6,967.9 c -3.9,0.1 -6.7,-0.9 -6.7,-0.9"
         class="st57"
         inkscape:connector-curvature="0"
         style="fill:none;stroke:#000000;stroke-linecap:round;stroke-linejoin:round;stroke-miterlimit:10" />
      <path
         id="path3743"
         stroke-miterlimit="10"
         clip-path="url(#b)"
         d="m 484,908.3 c -2.2,0.9 -2.1,3.2 0.1,6.7 2.1,3.5 4.5,7.9 5.9,10.3 1.4,2.4 2.6,3.5 4,2.8 1.4,-0.6 1.8,-2 0.4,-4.9 -1.4,-2.9 -5.8,-11 -7.2,-12.7 -1.6,-1.7 -2.4,-2.5 -3.2,-2.2 z"
         inkscape:connector-curvature="0"
         style="fill:#38434f;stroke:#000000;stroke-width:1.5;stroke-linecap:round;stroke-linejoin:round;stroke-miterlimit:10" />
      <path
         id="path3745"
         stroke-miterlimit="10"
         clip-path="url(#b)"
         d="m 525.9,907.8 c 2.5,-3.7 4.8,-5.2 4.8,-5.2 m 3.8,11.9 c 1.5,-3.1 3.7,-5.6 3.7,-5.6 m 11.9,13.3 c 1,-3.9 2.7,-5.6 2.7,-5.6 m 10.7,9 c 0.6,-4.6 0.9,-6.6 0.9,-6.6"
         class="st57"
         inkscape:connector-curvature="0"
         style="fill:none;stroke:#000000;stroke-linecap:round;stroke-linejoin:round;stroke-miterlimit:10" />
      <g
         id="g3753"
         clip-path="url(#b)"
         class="st53">
        <path
           id="path3747"
           d="m 504.9,862.2 c 0.8,-0.4 1.5,-0.8 2.2,-1.1"
           class="st49"
           inkscape:connector-curvature="0"
           style="fill:none;stroke:#e3e5e5;stroke-width:3;stroke-linecap:round;stroke-linejoin:round" />
        <path
           id="path3749"
           d="m 519.8,856.2 c 13.6,-3.5 22.1,0.5 28.2,3.3 5.3,2.4 11.6,4.7 17.6,5.3"
           inkscape:connector-curvature="0"
           style="fill:none;stroke:#e3e5e5;stroke-width:3;stroke-linecap:round;stroke-linejoin:round;stroke-dasharray:4.5286, 13.5857" />
        <path
           id="path3751"
           d="m 572.4,864.5 c 0.8,-0.2 1.6,-0.4 2.4,-0.7"
           class="st49"
           inkscape:connector-curvature="0"
           style="fill:none;stroke:#e3e5e5;stroke-width:3;stroke-linecap:round;stroke-linejoin:round" />
      </g>
      <g
         id="g3757"
         clip-path="url(#b)"
         class="st53">
        <path
           id="path3755"
           d="m 491.2,946.7 c -4.1,1.1 -6.1,1.8 -10,3.5 -2.1,0.9 -4.6,0.1 -5.6,-1.9 -1,-2 0,-4.6 2.3,-5.6 4.3,-1.9 6.6,-2.7 11.2,-3.9 2.4,-0.6 4.8,0.8 5.3,2.9 0.4,2.2 -1,4.4 -3.2,5 z"
           inkscape:connector-curvature="0"
           style="fill:#76d2f5;fill-opacity:1" />
      </g>
      <path
         id="path3759"
         stroke-miterlimit="10"
         clip-path="url(#b)"
         d="M 515.8,952.3 C 515.6,950 514.1,949 514.1,949"
         class="st57"
         inkscape:connector-curvature="0"
         style="fill:none;stroke:#000000;stroke-linecap:round;stroke-linejoin:round;stroke-miterlimit:10" />
      <g
         id="g3763"
         clip-path="url(#b)"
         class="st53">
        <path
           id="path3761"
           d="m 454.5,887.5 c -3.5,0.7 -7.1,1.3 -10.6,1.7 -3.6,0.4 -7.2,0.8 -10.8,0.6 -0.3,0 -0.5,-0.2 -0.5,-0.5 0,-0.3 0.2,-0.5 0.5,-0.5 3.5,0.2 7.1,-0.1 10.6,-0.4 3.5,-0.4 7.1,-0.9 10.6,-1.6 0.2,0 0.4,0.1 0.4,0.3 0.1,0.2 0,0.4 -0.2,0.4 z"
           inkscape:connector-curvature="0" />
      </g>
      <g
         id="g3767"
         clip-path="url(#b)"
         class="st53">
        <path
           id="path3765"
           d="m 417.2,891.8 c -2.2,-1.6 -4.3,-3.6 -5.4,-6.2 l -0.4,-1 -0.2,-1 -0.1,-0.5 v -0.5 c 0,-0.4 -0.1,-0.7 -0.1,-1.1 0,-1.4 0.2,-2.8 0.7,-4.1 0.9,-2.6 2.6,-4.9 4.4,-6.9 1.9,-2 4,-3.6 6.2,-5.2 2.2,-1.6 4.6,-2.9 7,-4.1 2.4,-1.2 5,-2.2 7.6,-2.9 5.2,-1.5 10.7,-1.9 16.1,-1.4 l -0.6,0.5 c -0.2,-1.3 -0.7,-2.7 -1.4,-3.8 -0.4,-0.6 -0.8,-1.1 -1.4,-1.5 -0.5,-0.5 -1.2,-1 -1.5,-1.9 -0.1,-0.2 -0.1,-0.5 -0.1,-0.7 0.1,-0.2 0.1,-0.5 0.2,-0.7 0.2,-0.4 0.6,-0.7 0.9,-0.9 0.7,-0.5 1.4,-0.7 2.2,-0.9 1.5,-0.3 3,-0.4 4.4,-0.4 2.9,0.1 5.9,0.7 8.6,1.8 2.7,1.1 5.3,2.8 7.1,5.3 l -0.9,0.5 c -0.3,-0.7 -0.5,-1.3 -0.5,-2.1 -0.1,-0.7 0,-1.5 0.4,-2.3 0.3,-0.3 0.5,-0.7 1,-0.8 0.2,-0.1 0.4,-0.1 0.6,-0.2 0.2,0 0.4,-0.1 0.6,-0.1 0.7,0 1.4,0.1 2.1,0.2 1.4,0.3 2.6,0.8 3.9,1.4 1.2,0.6 2.4,1.3 3.5,2.1 2.2,1.6 4.1,3.6 5.6,5.9 0.7,1.2 1.4,2.4 1.8,3.7 0.3,0.6 0.4,1.3 0.5,2 0.1,0.3 0.1,0.7 0.1,1 v 1 c -0.1,2.8 -1.3,5.5 -3,7.6 -1.7,2.2 -3.6,4 -5.9,5.6 -2.4,1.4 -4.9,2.3 -7.4,3.2 -2.5,0.8 -5.1,1.5 -7.8,1.9 1.2,-0.5 2.5,-0.9 3.7,-1.4 l 3.7,-1.3 c 2.5,-0.9 5,-1.8 7.2,-3.2 2.1,-1.5 4,-3.3 5.6,-5.4 1.5,-2.1 2.6,-4.5 2.7,-7 0.1,-2.5 -0.8,-5 -2.2,-7.1 -1.4,-2.2 -3.2,-4.1 -5.3,-5.6 -2.1,-1.5 -4.4,-2.8 -6.9,-3.4 -0.6,-0.1 -1.2,-0.2 -1.8,-0.2 -0.6,0 -1,0.1 -1.3,0.5 -0.5,0.8 -0.2,2.3 0.2,3.4 0.1,0.3 0,0.5 -0.3,0.6 -0.2,0.1 -0.4,0 -0.6,-0.2 -1.6,-2.3 -4,-3.8 -6.6,-4.9 -2.6,-1.1 -5.4,-1.7 -8.2,-1.7 -1.4,0 -2.8,0.1 -4.2,0.4 -0.7,0.2 -1.3,0.4 -1.8,0.7 -0.5,0.4 -0.8,0.8 -0.7,1.3 0.1,0.5 0.6,0.9 1.2,1.4 0.6,0.5 1.1,1.1 1.5,1.7 0.9,1.3 1.4,2.7 1.6,4.3 0,0.3 -0.2,0.5 -0.4,0.5 H 453 c -5.3,-0.5 -10.7,-0.1 -15.8,1.4 -2.5,0.7 -5,1.7 -7.4,2.8 -2.4,1.2 -4.7,2.5 -6.8,4.1 -2.2,1.5 -4.3,3.2 -6.1,5.1 -1.8,1.9 -3.4,4.1 -4.2,6.5 -0.4,1.2 -0.6,2.5 -0.7,3.8 0,0.3 0.1,0.6 0.1,1 v 0.5 l 0.1,0.5 0.2,0.9 0.4,0.9 c 1,2.4 2.9,4.3 5,5.8 0.2,0.2 0.3,0.5 0.1,0.7 -0.2,0.2 -0.4,0.3 -0.7,0.1 z"
           inkscape:connector-curvature="0" />
      </g>
      <g
         id="g3773"
         clip-path="url(#b)"
         class="st53">
        <path
           id="path3769"
           d="m 615.1,863.2 c 2,1.2 2.3,1.8 2.3,1.8"
           class="st36"
           inkscape:connector-curvature="0"
           style="fill:#38434f" />
        <path
           id="path3771"
           d="m 615.3,862.9 1.2,0.9 c 0.2,0.2 0.4,0.3 0.6,0.5 0.2,0.2 0.3,0.4 0.5,0.6 0,0.1 0,0.2 -0.1,0.2 h -0.2 l -0.5,-0.5 c -0.2,-0.1 -0.4,-0.3 -0.6,-0.4 -0.4,-0.3 -0.8,-0.5 -1.3,-0.7 -0.2,-0.1 -0.2,-0.3 -0.1,-0.5 0.1,-0.2 0.2,-0.2 0.5,-0.1 -0.1,0 -0.1,0 0,0 z"
           inkscape:connector-curvature="0" />
      </g>
      <path
         style="fill:#53c1ea;fill-opacity:1;stroke:#1d5569;stroke-width:1.71968508;stroke-linecap:butt;stroke-linejoin:miter;stroke-miterlimit:4;stroke-dasharray:none;stroke-opacity:1"
         d="m 597.1717,968.60296 c 0,0 -1.85529,0.59257 -2.20896,3.5096 -0.3695,3.04849 0.98089,4.46505 1.92441,4.98724 1.62433,1.96125 5.3256,-1.13651 3.82116,-7.38191 -1.1877,-3.25821 -3.53661,-1.11493 -3.53661,-1.11493 z"
         id="path866-1"
         inkscape:connector-curvature="0"
         sodipodi:nodetypes="csccccc" />
      <path
         style="fill:#53c1ea;fill-opacity:1;stroke:#1d5569;stroke-width:1.65310252;stroke-linecap:butt;stroke-linejoin:miter;stroke-miterlimit:4;stroke-dasharray:none;stroke-opacity:1"
         d="m 597.41073,987.26573 c 0,0 -1.16398,0.54731 -0.95459,2.44165 0.21884,1.97976 1.35035,2.76108 2.06896,3.00857 1.40053,1.10398 3.42801,-1.21064 1.44966,-5.06059 -1.30463,-1.9717 -2.56403,-0.38963 -2.56403,-0.38963 z"
         id="path866-1-6"
         inkscape:connector-curvature="0"
         sodipodi:nodetypes="csccccc" />
      <path
         style="fill:#53c1ea;fill-opacity:1;stroke:#1d5569;stroke-width:1.65310252;stroke-linecap:butt;stroke-linejoin:miter;stroke-miterlimit:4;stroke-dasharray:none;stroke-opacity:1"
         d="m 511.96881,1006.0587 c 0,0 -1.16398,0.5473 -0.95459,2.4416 0.21884,1.9798 1.35035,2.7611 2.06896,3.0086 1.40053,1.104 3.42801,-1.2107 1.44966,-5.0606 -1.30463,-1.9717 -2.56403,-0.3896 -2.56403,-0.3896 z"
         id="path866-1-6-8"
         inkscape:connector-curvature="0"
         sodipodi:nodetypes="csccccc" />
    </g>
  </g>
</svg>
